<svg xmlns="http://www.w3.org/2000/svg" width="128" height="128" viewBox="0 0 128 128">
  <title>CURRENCY</title>
  <g>
    <path d="M64,6.307A24.195,24.195,0,0,0,43.752,43.752a24.317,24.317,0,0,1,7,7A24.2,24.2,0,1,0,64,6.307Z" fill="#fcc101"/>
    <path d="M50.754,77.246a24.207,24.207,0,1,0-7,7A24.317,24.317,0,0,1,50.754,77.246Z" fill="#f4dd45"/>
    <path d="M77.246,77.246a24.207,24.207,0,1,0,7,7A24.3,24.3,0,0,1,77.246,77.246Z" fill="#fcc101"/>
    <path d="M97.494,39.8a24.079,24.079,0,0,0-13.246,3.951,24.33,24.33,0,0,1-7,7A24.2,24.2,0,1,0,97.494,39.8Z" fill="#f4dd45"/>
    <circle cx="30.506" cy="64" r="16.6" fill="#fcc101"/>
    <circle cx="64" cy="30.506" r="16.6" transform="translate(-4.759 47.791) rotate(-39.596)" fill="#f4dd45"/>
    <circle cx="64" cy="97.494" r="16.6" transform="translate(-22.573 19.352) rotate(-14.647)" fill="#f4dd45"/>
    <circle cx="97.494" cy="64" r="16.6" fill="#fcc101"/>
    <path d="M31.867,74v1.815H29.286v-1.9a11.629,11.629,0,0,1-6.609-3.035l2.043-2.525a9.693,9.693,0,0,0,4.566,2.439V65.262c-3.489-.908-5.843-2.156-5.843-5.5,0-3.063,2.354-5.418,5.843-5.843v-1.73h2.581v1.758a10.555,10.555,0,0,1,5.957,2.638L35.9,59.192a9.287,9.287,0,0,0-4.029-2.128V62.4c3.887.879,6.468,2.212,6.468,5.672C38.335,71.332,35.981,73.715,31.867,74ZM29.286,61.716V57.008a2.678,2.678,0,0,0-2.269,2.439C27.017,60.582,27.755,61.178,29.286,61.716Zm5.5,6.7c0-1.305-.907-1.9-2.922-2.5v5.049C33.8,70.737,34.789,69.659,34.789,68.411Z" fill="#f4dd45"/>
    <path d="M100.5,64.553h4.057v2.128H99.309v1.957h5.248v2.127H99.309v2.979h-3.6V70.765H90.488V68.638h5.218V66.681H90.488V64.553h4.027l-6.523-10.3h4.169l5.361,8.822,5.446-8.822H107Z" fill="#f4dd45"/>
    <path d="M71.886,103.916v2.894H56.114v-1.5l2.24-1.391v-4.4h-1.9V97.392h1.9V93.677a6.348,6.348,0,0,1,6.525-6.7,7.561,7.561,0,0,1,6.354,3.234l-2.411,2.326a3.884,3.884,0,0,0-3.66-2.355c-1.9,0-3.29,1.532-3.29,3.716v3.489h4.992V99.52H61.872v4.4Z" fill="#fcc101"/>
    <path d="M69.205,35.087l2.5,2.326a10.158,10.158,0,0,1-7.347,3.177,10.433,10.433,0,0,1-9.786-7.148H52.3V31.428h1.872c-.028-.312-.057-.624-.057-.936a10.337,10.337,0,0,1,.085-1.334H52.3V27.145H54.71a10.391,10.391,0,0,1,9.644-6.723A10.243,10.243,0,0,1,71.7,23.571l-2.524,2.354a6.409,6.409,0,0,0-4.823-2.269A6.668,6.668,0,0,0,58.6,27.145h7.432v2.013h-8.17a6.873,6.873,0,0,0-.141,1.334c0,.312.028.624.056.936h8.255v2.014H58.369a6.756,6.756,0,0,0,5.985,3.914A6.467,6.467,0,0,0,69.205,35.087Z" fill="#fcc101"/>
  </g>
</svg>
